<svg xmlns="http://www.w3.org/2000/svg" width="161" height="61" viewBox="0 0 161 61" fill="none"><path d="M86.2411 6.8733C86.4534 6.79934 86.5789 6.95048 86.6625 7.08875C86.7462 7.22702 86.8427 7.31384 86.9746 7.39745C87.0969 7.47462 87.232 7.58395 87.277 7.70936C87.3317 7.85728 87.4894 7.83478 87.5473 7.95375C87.5762 8.01163 87.6181 8.05987 87.6116 8.13061C87.6084 8.15312 87.6148 8.19171 87.6277 8.20135C87.7242 8.26888 87.8594 8.26245 87.9334 8.38465C87.9913 8.48112 88.0074 8.59688 88.1457 8.66441C88.2551 8.71586 88.3516 8.84448 88.4256 8.97954C88.5189 9.14675 88.7055 9.2593 88.876 9.42008C88.9436 9.37506 88.9983 9.24 89.1527 9.26573C89.1077 9.20785 89.0626 9.15962 89.0691 9.14997C89.4069 8.66441 89.5709 8.06951 90.0052 7.64505C90.0632 7.59038 90.0921 7.52286 90.1243 7.45212C90.1983 7.28169 90.4171 7.19807 90.4332 6.98263C90.4332 6.96655 90.5007 6.94082 90.5329 6.94404C90.668 6.96333 90.7098 6.84436 90.7903 6.78326C90.7999 6.78969 90.816 6.79934 90.816 6.80577C90.8128 7.02765 91.0637 6.88294 91.1217 7.01478C91.1603 6.9762 91.2246 6.94083 91.231 6.89903C91.2407 6.82185 91.2535 6.79291 91.3404 6.77361C91.4241 6.7511 91.5013 6.68036 91.482 6.5646C91.4659 6.46813 91.556 6.38774 91.6075 6.38452C91.926 6.37488 92.0997 6.14657 92.267 5.94076C92.415 5.76069 92.5855 5.60634 92.7624 5.47771C92.978 5.32015 93.1549 5.13043 93.348 4.95678C93.4413 4.86996 93.5088 4.73812 93.6729 4.76384C93.7147 4.77027 93.7404 4.73812 93.7437 4.68989C93.7501 4.59985 93.8177 4.55483 93.8885 4.52589C94.2005 4.38762 94.4643 4.18503 94.6896 3.93421C94.8311 3.77343 95.0338 3.70912 95.2043 3.60943C95.6097 3.36504 96.0247 3.13352 96.4397 2.90521C96.8 2.70584 97.1572 2.49682 97.5271 2.31996C97.6494 2.26208 97.762 2.18812 97.9164 2.18169C98.0451 2.17526 98.1834 2.10773 98.2896 2.02734C98.6017 1.78938 98.9652 1.70577 99.332 1.62538C99.4639 1.59644 99.5894 1.53213 99.7213 1.49676C100.178 1.37135 100.632 1.2363 101.076 1.0723C101.175 1.03372 101.298 1.04658 101.404 0.991912C101.491 0.943677 101.626 1.03692 101.71 0.953316C101.809 0.850416 101.948 0.95975 102.038 0.876144C102.07 0.792538 102.022 0.750738 101.967 0.708935C102.018 0.647838 102.192 0.644622 102.202 0.708935C102.224 0.901873 102.343 0.805402 102.459 0.818265C102.356 0.712149 102.34 0.618898 102.446 0.52886C102.157 0.429175 101.909 0.599604 101.655 0.599604C101.613 0.702505 101.684 0.737875 101.722 0.789325C101.661 0.876148 101.533 0.773241 101.475 0.872925C101.468 0.882572 101.455 0.892218 101.446 0.901865C101.356 0.850415 101.433 0.757164 101.369 0.663911C101.259 0.663911 101.127 0.663911 100.999 0.663911C101.134 0.544933 101.311 0.535292 101.475 0.509567C101.626 0.483842 101.787 0.515992 101.925 0.422739C102.099 0.306976 102.318 0.361644 102.507 0.274822C102.671 0.200863 102.881 0.191217 103.07 0.165492C103.218 0.142983 103.37 0.097963 103.524 0.104394C103.637 0.10761 103.743 0.123686 103.862 0.162273C104.135 0.252311 104.399 0.0625855 104.724 0.0786637C104.708 0.0625855 104.747 0.101174 104.785 0.139762C104.692 0.290896 104.476 0.268392 104.431 0.416311C104.258 0.448467 104.344 0.220157 104.177 0.255529C104.029 0.287686 103.997 0.380939 103.949 0.506348C103.64 0.458114 103.341 0.551363 103.035 0.602813C102.993 0.696067 103.035 0.789321 103.122 0.734655C103.222 0.670343 103.315 0.676771 103.418 0.660692C103.531 0.644614 103.659 0.718579 103.759 0.606032C103.859 0.663913 103.968 0.676771 104.077 0.660692C105.216 0.493479 106.362 0.634974 107.504 0.567446C107.61 0.474193 107.478 0.435603 107.456 0.374506C107.504 0.284468 107.597 0.26839 107.678 0.233018C107.674 0.130117 107.552 0.223371 107.542 0.133334C107.549 0.126903 107.568 0.0979599 107.584 0.101175C107.748 0.120469 107.912 0.0658039 108.08 0.17192C108.202 0.245879 108.372 0.187999 108.533 0.233018C108.733 0.290899 108.961 0.339133 109.177 0.332701C109.444 0.323055 109.682 0.48062 109.949 0.422739C110.248 0.573873 110.592 0.544936 110.895 0.66713C111.233 0.802186 111.612 0.792536 111.931 0.985474C112.275 0.969396 112.548 1.17841 112.857 1.2781C113.163 1.37778 113.488 1.43244 113.765 1.61574C113.784 1.6286 113.816 1.63503 113.839 1.6286C114.225 1.54499 114.511 1.82797 114.855 1.90193C115.016 1.9373 115.142 2.04985 115.293 2.11416C115.814 2.34247 116.306 2.62223 116.744 2.9856C117.361 3.21712 117.805 3.71555 118.359 4.04997C118.462 4.25256 118.668 4.3844 118.738 4.61914C118.639 4.74455 118.642 4.97929 118.378 4.93749C118.346 4.93106 118.346 5.0018 118.33 5.03075C118.278 5.10792 118.224 5.20117 118.146 5.23332C117.799 5.38446 117.67 5.72854 117.445 5.98579C117.3 6.153 117.191 6.35559 116.991 6.47778C116.959 6.49707 116.921 6.52922 116.908 6.56138C116.802 6.8122 116.605 6.97941 116.403 7.15627C116.235 7.30098 116.126 7.51321 115.997 7.69972C115.682 8.15955 115.37 8.62261 114.948 8.99883C114.849 9.08887 114.765 9.17569 114.781 9.33325C114.797 9.47153 114.649 9.51655 114.569 9.61623C114.289 9.50047 114.032 9.32682 113.806 9.13389C113.424 8.80911 112.992 8.55829 112.59 8.26567C112.516 8.211 112.426 8.13705 112.317 8.15634C112.214 8.17242 112.13 8.09524 112.079 8.05344C111.725 7.77046 111.274 7.71901 110.888 7.51321C110.846 7.4907 110.795 7.49713 110.747 7.46819C110.3 7.182 109.782 7.07267 109.293 6.89903C109.125 6.84115 108.945 6.83793 108.771 6.79612C108.411 6.71252 108.047 6.62248 107.671 6.62248C107.533 6.62248 107.417 6.50994 107.259 6.53888C107.137 6.56139 107.005 6.55817 106.886 6.46813C106.844 6.43598 106.754 6.4617 106.69 6.4617C105.992 6.4617 105.294 6.47135 104.595 6.45527C104.415 6.44884 104.277 6.54852 104.106 6.54852C103.942 6.54852 103.785 6.52601 103.608 6.6064C103.45 6.67715 103.235 6.67393 103.045 6.69644C102.549 6.75111 102.086 6.92153 101.613 7.04372C101.414 7.09517 101.192 7.11125 101.005 7.22702C100.834 7.32992 100.664 7.46498 100.477 7.50035C100.262 7.54215 100.075 7.64505 99.8822 7.72223C99.5604 7.85407 99.2677 8.05022 98.962 8.22387C98.8752 8.27532 98.8012 8.36536 98.7079 8.38787C98.4344 8.45861 98.2478 8.66119 98.0451 8.82841C97.7684 9.05672 97.5175 9.31718 97.1732 9.45224C97.1057 9.47796 97.0574 9.56157 96.9995 9.61945C96.8 9.81882 96.5974 10.015 96.4011 10.2176C96.2177 10.4073 95.9829 10.5295 95.7995 10.7224C95.6708 10.8607 95.5518 11.0054 95.4263 11.1437C95.2976 11.2851 95.156 11.4202 95.0467 11.5778C94.9405 11.7321 94.8311 11.8929 94.7346 12.0537C94.5609 12.3367 94.3163 12.565 94.1523 12.8576C94.059 13.0216 93.9431 13.1824 93.9174 13.3624C93.8981 13.4975 93.7887 13.5522 93.734 13.6486C93.6021 13.8898 93.4799 14.1374 93.3641 14.385C93.2547 14.6198 93.1871 14.8834 93.0809 15.1117C92.9683 15.3561 92.904 15.6295 92.7142 15.8513C92.5823 16.0057 92.5372 16.234 92.4697 16.4302C92.3538 16.7614 92.1897 17.0411 91.9742 17.3177C91.7683 17.5814 91.5334 17.8065 91.3082 18.0444C90.8643 18.5203 90.2787 18.7647 89.6964 19.0123C89.5806 19.0605 89.4551 19.0509 89.3425 19.0284C89.1109 18.9802 88.8825 18.9094 88.6637 18.8258C88.387 18.7197 88.1135 18.5975 87.8433 18.4689C87.5795 18.3435 87.335 18.1666 87.1226 17.9865C86.9231 17.8161 86.7591 17.5781 86.5693 17.3788C86.5821 17.2019 86.3376 17.263 86.3151 17.0861C86.299 16.964 86.1382 16.8643 86.0963 16.7389C86.0513 16.607 85.9966 16.472 85.9194 16.3723C85.6974 16.0764 85.5076 15.7613 85.2856 15.4655C85.1472 15.2822 84.9671 15.131 84.9478 14.8802C84.7193 14.803 84.6807 14.5683 84.5585 14.4043C84.2754 14.0217 83.9794 13.6486 83.6737 13.2788C83.4389 12.9959 83.1493 12.7643 82.9499 12.4588C82.7343 12.1309 82.4254 11.8993 82.1648 11.6196C81.8013 11.2305 81.3638 10.925 80.9359 10.6099C80.3922 10.2111 79.8098 9.86384 79.2758 9.45224C78.716 9.02134 78.0725 8.72872 77.4388 8.4361C77.0141 8.23994 76.5444 8.14025 76.1229 7.91838C75.8237 7.93767 75.5534 7.79297 75.2639 7.74474C74.9711 7.69651 74.6591 7.68042 74.3856 7.53893C74.3309 7.50999 74.2827 7.51964 74.2344 7.51642C73.3336 7.49713 72.4327 7.40388 71.5287 7.42318C71.1845 7.42961 70.8531 7.50357 70.5153 7.53251C70.2128 7.55823 69.8847 7.58074 69.6048 7.75117C69.1447 7.77368 68.7425 8.0245 68.2889 8.07273C68.2278 8.07916 68.1957 8.11453 68.1603 8.1499C68.1313 8.17884 68.0959 8.23672 68.0766 8.23029C67.7324 8.15312 67.5264 8.41681 67.2916 8.56794C67.0664 8.71264 66.8122 8.82841 66.6578 9.07922C66.5516 9.24965 66.5291 9.22071 66.3007 9.12746C66.0658 9.03099 65.8889 8.85092 65.7892 8.65798C65.6122 8.30104 65.3033 8.06308 65.0846 7.75117C64.8401 7.40388 64.4958 7.13698 64.3156 6.74145C64.2963 6.69643 64.2417 6.66428 64.203 6.6257C63.9328 6.36201 63.6947 6.07261 63.4888 5.75426C63.4534 5.6996 63.3955 5.65779 63.3473 5.60956C62.9194 5.19795 62.5687 4.72204 62.1794 4.2815C62.1311 4.22683 62.144 4.13358 62.0732 4.09178C62.1247 4.03068 62.1858 3.97923 62.2244 3.9117C62.366 3.67374 62.5172 3.47116 62.8164 3.3972C63.003 3.35218 63.1993 3.25249 63.344 3.12387C63.5628 2.92771 63.8427 2.89557 64.0872 2.77016C64.3639 2.62867 64.6696 2.55149 64.9301 2.37141C64.9752 2.33925 65.0749 2.25565 65.1843 2.34247C65.2133 2.36498 65.3484 2.20742 65.4352 2.20742C65.7666 2.20742 66.0272 2.00805 66.3264 1.92122C66.6964 1.81189 67.0664 1.70578 67.4267 1.5675C67.5972 1.50319 67.8064 1.56108 67.9962 1.48068C68.2729 1.36814 68.5978 1.40994 68.868 1.24594C68.9066 1.22021 68.971 1.22665 69.0225 1.23308C69.4085 1.29097 69.7785 1.12375 70.1582 1.15912C70.2675 1.16877 70.3351 0.962963 70.467 1.12374C70.5667 1.24594 70.6246 1.03049 70.7437 1.06265C70.8498 1.0948 70.9689 1.08194 71.0751 0.995121C71.1458 0.940455 71.2198 1.15269 71.3421 1.02728C71.4289 0.937241 71.5351 0.975831 71.6156 1.06908C71.6284 1.08195 71.6735 1.08195 71.6928 1.06908C71.9662 0.901871 72.2397 1.13983 72.5131 1.0723C72.6097 1.04979 72.7223 1.11089 72.8124 1.00799C72.8349 0.979045 72.9314 0.969396 72.9603 0.995121C73.1405 1.13982 73.3464 1.08194 73.533 1.06265C73.9609 1.02406 74.3727 1.1334 74.7878 1.16877C75.1256 1.19771 75.4601 1.33277 75.8108 1.31026C75.8719 1.30704 75.917 1.32633 75.9459 1.37456C76.0135 1.48389 76.1197 1.47104 76.2291 1.47426C76.4511 1.47747 76.451 1.48068 76.6634 1.71221C76.4993 1.72186 76.3642 1.55786 76.2452 1.64147C76.1165 1.7315 75.9685 1.68648 75.7947 1.7508C76.1615 1.84727 76.4543 2.02413 76.7889 2.03699C76.8596 1.88264 76.6505 1.81189 76.7503 1.66076C76.9787 1.54178 77.2039 1.70578 77.4323 1.74437C77.6253 1.77652 77.8055 1.89872 78.0178 1.87621C78.2463 2.06593 78.6002 1.97911 78.8029 2.21707C78.9026 2.33283 79.0345 2.22992 79.1342 2.30067C79.3981 2.48717 79.7391 2.46145 80.0125 2.6158C80.2731 2.76372 80.5402 2.89556 80.8136 3.01454C81.2061 3.18175 81.5793 3.38755 81.9268 3.63837C81.9557 3.65766 82.0137 3.64802 82.033 3.67053C82.1391 3.81845 82.3515 3.7477 82.4705 3.90848C82.567 4.04032 82.7729 4.08534 82.8887 4.21075C82.9949 4.32973 83.1815 4.24291 83.2587 4.40369C83.3166 4.5291 83.471 4.53875 83.5708 4.61593C83.5997 4.63844 83.648 4.63521 83.6705 4.66094C83.9665 4.99215 84.4137 5.11756 84.7226 5.42626C84.9639 5.66743 85.2823 5.80571 85.4979 6.07903C85.5622 6.15943 85.707 6.20123 85.7328 6.25911C85.7907 6.37809 85.8904 6.35558 85.9548 6.40382C86.0931 6.49064 86.2121 6.65142 86.2411 6.8733C86.2411 6.87973 86.2411 6.86687 86.2411 6.854C86.2218 6.86043 86.196 6.86687 86.1799 6.87651C86.1574 6.88938 86.1639 6.9151 86.1961 6.92475C86.2057 6.92796 86.225 6.90224 86.2411 6.8733ZM93.4928 6.45205C93.5474 6.45526 93.5764 6.42633 93.6214 6.29771C93.6053 6.31057 93.5828 6.32021 93.5764 6.33629C93.5603 6.37166 93.5764 6.38774 93.6118 6.37166C93.6279 6.36523 93.6375 6.34272 93.6472 6.32343C93.6504 6.32021 93.6311 6.30735 93.5764 6.37166C93.5217 6.36844 93.4928 6.39739 93.496 6.48743C93.4928 6.47456 93.4928 6.4617 93.4928 6.45205C93.4734 6.45848 93.4477 6.46491 93.4316 6.47456C93.4091 6.48742 93.4155 6.51315 93.4477 6.52279C93.4574 6.52601 93.4799 6.50028 93.4928 6.45205ZM98.325 3.34254C98.3025 3.32968 98.2832 3.3136 98.2639 3.31038C98.2092 3.30395 98.1674 3.32003 98.1706 3.39077C98.2221 3.38112 98.2928 3.42292 98.1706 3.42614C98.1706 3.41328 98.1706 3.40363 98.1706 3.39077C98.1513 3.3972 98.1256 3.40364 98.1095 3.41328C98.087 3.42615 98.0934 3.45187 98.1255 3.46152C98.132 3.46473 98.1545 3.43901 98.325 3.34254ZM90.3012 9.02456C90.3173 9.00848 90.3495 8.98597 90.3463 8.98275C90.3238 8.94738 90.3946 8.86056 90.3141 8.87664C90.2498 8.8895 90.253 8.96989 90.3978 8.79625C90.3817 8.80911 90.3592 8.81876 90.3527 8.83483C90.3366 8.87021 90.3527 8.88629 90.3881 8.87021C90.4042 8.86378 90.4138 8.84126 90.4235 8.82197C90.4235 8.81554 90.4074 8.80268 90.3012 9.02456ZM94.8633 5.64492C94.9695 5.64814 95.066 5.64493 95.0016 5.49058C94.9308 5.52917 94.8762 5.56775 94.8633 5.6803C94.8633 5.67065 94.8633 5.65778 94.8633 5.64492C94.844 5.65135 94.8182 5.65779 94.8021 5.66743C94.7796 5.6803 94.7861 5.70602 94.8182 5.71567C94.8279 5.71888 94.8472 5.69316 94.8633 5.64492ZM91.0766 7.9023C91.2085 7.92803 91.2632 7.87336 91.2375 7.74152C91.3404 7.6547 91.5142 7.67078 91.5624 7.50357C91.6042 7.35565 91.704 7.26239 91.8359 7.17557C91.9678 7.08874 92.0675 6.95368 92.1801 6.84114C92.3024 6.71894 92.4246 6.59354 92.5501 6.47134C92.653 6.37166 92.7753 6.29127 92.8621 6.16586C92.9554 6.02759 93.1485 5.99543 93.2547 5.85073C93.4059 5.64814 93.7019 5.59026 93.7952 5.32336C94.0911 5.20117 94.2874 4.93106 94.593 4.81851C94.6863 4.78314 94.844 4.6931 94.8504 4.62235C94.8697 4.47765 94.992 4.53554 95.0467 4.46801C95.1078 4.39083 95.1914 4.32973 95.2815 4.26863C95.6032 4.04675 95.9571 3.88276 96.2853 3.68018C96.5073 3.5419 96.7582 3.44543 96.9706 3.27822C97.17 3.12066 97.4435 3.05956 97.6752 2.94701C98.2028 2.69298 98.7465 2.48717 99.2773 2.23957C99.3224 2.21706 99.3577 2.1849 99.4124 2.17847C99.8854 2.10773 100.326 1.92123 100.78 1.7926C101.118 1.69613 101.459 1.5868 101.803 1.55143C102.047 1.5257 102.279 1.39708 102.533 1.45817C102.919 1.25559 103.36 1.34241 103.765 1.22665C103.978 1.16555 104.219 1.20093 104.447 1.22022C104.689 1.24273 104.898 1.09803 105.139 1.13018C105.528 1.18163 105.931 1.053 106.313 1.21378C106.49 1.11731 106.664 1.08195 106.844 1.20093C107.082 1.05944 107.311 1.18806 107.549 1.20093C107.964 1.22344 108.366 1.29096 108.771 1.36171C108.945 1.39386 109.125 1.44209 109.299 1.44531C109.495 1.44852 109.682 1.51284 109.872 1.52249C109.987 1.52892 110.042 1.62217 110.161 1.61895C110.586 1.61252 110.972 1.78939 111.377 1.88264C111.567 1.92766 111.757 1.96625 112.018 2.02413C111.889 1.92766 111.85 1.87299 111.76 1.84726C111.207 1.69613 110.641 1.59002 110.107 1.37135C109.92 1.41316 109.756 1.3006 109.579 1.27488C109.373 1.24272 109.157 1.26202 108.968 1.20093C108.591 1.07873 108.192 1.09802 107.813 0.979047C107.629 0.921165 107.411 0.956531 107.211 0.972609C106.999 0.988687 106.819 0.8665 106.6 0.879363C106.159 0.905088 105.712 0.908297 105.271 0.882572C104.833 0.853631 104.409 0.995119 103.974 0.962963C103.614 0.937237 103.26 0.998337 102.922 1.06587C102.527 1.14626 102.121 1.18484 101.729 1.2781C101.484 1.33598 101.233 1.37135 101.005 1.47747C100.847 1.55143 100.632 1.49676 100.526 1.6897C100.513 1.71221 100.423 1.69292 100.371 1.69292C100.291 1.69613 100.197 1.6704 100.136 1.70577C99.9787 1.79581 99.7953 1.78938 99.6312 1.85048C99.48 1.90515 99.3545 2.01448 99.1744 2.02091C99.0038 2.02734 98.8913 2.24279 98.6789 2.19134C98.65 2.18491 98.6468 2.33283 98.5116 2.34569C98.2768 2.36498 98.0355 2.42286 97.8553 2.60616C97.8296 2.63188 97.8038 2.66082 97.7556 2.66082C97.4853 2.66403 97.2601 2.76372 97.0735 2.96952C97.0446 3.00168 96.9674 3.02419 96.9127 3.05634C96.7615 3.14316 96.5974 3.20426 96.4462 3.28787C96.2274 3.41328 96.0279 3.57084 95.8027 3.68018C95.4745 3.83774 95.2268 4.1368 94.8601 4.22684C94.6992 4.41978 94.4386 4.50016 94.2971 4.71239C94.1523 4.93105 93.8756 4.94071 93.6987 5.13043C93.4831 5.35874 93.2611 5.60312 92.9555 5.73818C92.8943 5.7639 92.8203 5.82822 92.8429 5.93112C92.8493 5.96649 92.859 6.02758 92.8107 6.03723C92.5469 6.08868 92.4825 6.4006 92.2251 6.47456C92.1222 6.5035 92.0192 6.62248 91.971 6.72538C91.8551 6.97941 91.6428 7.14341 91.4434 7.30419C91.2857 7.43282 91.2214 7.55501 91.2278 7.7383C91.1056 7.71579 91.0509 7.77046 91.0766 7.9023C91.0219 7.89909 90.993 7.92802 91.0026 7.96661C90.9093 8.02449 90.8095 8.06308 90.8482 8.19171C90.8514 8.20779 90.89 8.22386 90.9093 8.22065C91.0798 8.19492 90.964 8.05986 90.9962 7.97947C91.0509 7.98269 91.0798 7.95697 91.0766 7.9023ZM94.3003 5.72531C94.4258 5.73818 94.5094 5.68995 94.4901 5.53881C94.667 5.59026 94.77 5.56132 94.8569 5.4552C94.9469 5.34909 95.0402 5.23975 95.1882 5.19474C95.2107 5.1883 95.2944 5.15293 95.2204 5.06611C94.9566 5.15615 94.7796 5.38446 94.5448 5.56453C94.4193 5.55167 94.3356 5.59991 94.3035 5.76069C94.3002 5.75104 94.3003 5.73818 94.3003 5.72531C94.281 5.73174 94.2552 5.73818 94.2391 5.74782C94.2166 5.76069 94.2231 5.78641 94.2552 5.79606C94.2649 5.79927 94.2842 5.77355 94.3003 5.72531ZM81.5536 4.51945C81.6115 4.60627 81.6469 4.71561 81.8045 4.65773C81.7498 4.55483 81.6823 4.50016 81.5793 4.51624C81.5214 4.42942 81.486 4.32009 81.3284 4.37797C81.3799 4.48087 81.4507 4.53553 81.5536 4.51945ZM80.672 3.35539C80.656 3.33932 80.6334 3.30716 80.6302 3.31038C80.5948 3.33289 80.508 3.26215 80.5241 3.34254C80.5369 3.40685 80.6174 3.40363 80.5176 3.30716C80.5595 3.23963 80.36 3.20104 80.4983 3.12387C80.5209 3.11101 80.5144 3.08207 80.4822 3.06921C80.4597 3.05956 80.4243 3.05634 80.405 3.06599C80.331 3.10779 80.3536 3.18176 80.3632 3.24285C80.3696 3.34897 80.4597 3.2943 80.672 3.35539ZM79.7873 3.59657C79.7712 3.58049 79.7487 3.54834 79.7455 3.55155C79.7101 3.57406 79.6232 3.50332 79.6393 3.58371C79.6522 3.64802 79.7326 3.64481 79.7101 3.51297C79.5042 3.49689 79.4206 3.30073 79.205 3.44543C79.3691 3.46794 79.4752 3.59657 79.7873 3.59657ZM92.1286 9.78988C92.1898 9.8574 92.2251 9.97638 92.3538 9.88634C92.3571 9.81238 92.4053 9.73199 92.3377 9.68697C92.2123 9.64196 92.1898 9.75129 92.1544 10.0729C92.1705 10.0568 92.2026 10.0343 92.1994 10.031C92.1769 9.99568 92.2477 9.90886 92.1673 9.92494C92.1029 9.93458 92.1061 10.015 92.1286 9.78988ZM81.0806 3.55155C81.0839 3.44544 81.0806 3.34897 80.9262 3.41328C80.9648 3.48081 81.0034 3.53869 81.0806 3.55155C81.0871 3.59979 81.0839 3.68018 81.1064 3.68982C81.2287 3.73484 81.3573 3.76056 81.6469 3.76699C81.634 3.75092 81.6179 3.73162 81.6051 3.71554C81.5664 3.75413 81.5278 3.79272 81.486 3.83131C81.5182 3.84417 81.5472 3.8699 81.5793 3.87312C81.6469 3.87633 81.6501 3.81844 81.486 3.79593C81.412 3.60943 81.2479 3.58049 81.0806 3.55155ZM83.1397 5.48414C83.1525 5.48414 83.1622 5.48414 83.1751 5.48414C83.1686 5.46485 83.1622 5.43913 83.1526 5.42305C83.1397 5.40054 83.1139 5.40697 83.1043 5.43913C83.1011 5.44877 83.1268 5.47128 83.1751 5.48736C83.2394 5.72853 83.3327 5.79285 83.5901 5.76391C83.4357 5.6803 83.3938 5.45842 83.1397 5.48414ZM85.025 6.89903C85.0121 6.88295 85.0025 6.86043 84.9864 6.854C84.951 6.83792 84.9349 6.85401 84.951 6.88938C84.9574 6.90546 84.9799 6.9151 84.9992 6.92475C85.0025 6.92796 85.0153 6.90867 85.0025 6.86687C84.8255 6.68679 84.7001 6.52601 84.4877 6.46491C84.4813 6.49707 84.462 6.53244 84.4716 6.54209C84.536 6.62569 84.8545 6.82828 85.025 6.89903ZM79.7455 5.88931C79.6232 5.74139 79.4913 5.67708 79.3208 5.63528C79.3562 5.81535 79.4399 5.86359 79.6522 5.87967C79.8903 6.05331 80.0447 6.27519 80.3729 6.17551C80.1959 6.04688 79.8452 5.89574 79.7455 5.88931ZM81.2383 4.3233C81.2222 4.30722 81.1997 4.27506 81.1965 4.27828C81.1611 4.30079 81.0742 4.23005 81.0903 4.31044C81.1032 4.37475 81.1836 4.37154 81.0839 4.27507C81.0613 4.15931 80.9423 4.04997 80.8876 4.04997C80.6592 4.04997 80.5144 3.80559 80.2924 3.85382C80.1991 3.71555 80.0576 3.66731 79.8967 3.64802C79.9965 3.77343 80.0704 3.93743 80.2796 3.8699C80.4983 4.09821 80.7911 4.18503 81.2383 4.3233ZM86.5628 11.5488C86.5564 11.6807 86.6239 11.7611 86.7526 11.7707C86.6883 11.6967 86.6207 11.6196 86.5853 11.5295C86.4631 11.3044 86.3827 11.0697 86.1285 10.9475C86.0609 11.0568 86.048 11.1437 86.1413 11.2305C86.2314 11.3173 86.3344 11.3945 86.3537 11.5295C86.4309 11.5263 86.4953 11.5263 86.5628 11.5488ZM78.0919 2.31031C78.0758 2.29423 78.0533 2.26208 78.05 2.2653C78.0146 2.28781 77.9278 2.21707 77.9438 2.29746C77.9567 2.36177 78.0371 2.35855 77.9374 2.26208C77.9471 2.12702 77.8602 2.03699 77.8087 1.93087C77.5192 2.05628 77.5192 2.05628 77.294 1.86013C77.2843 1.8537 77.2489 1.87299 77.22 1.88586C77.2103 1.98554 77.1813 2.08844 77.2521 2.19456C77.4934 2.10452 77.7026 2.28137 78.0919 2.31031ZM94.2102 7.5743C94.4483 7.60646 94.6188 7.56144 94.7153 7.30419C94.7603 7.18521 94.8923 7.08231 95.0242 7.01157C95.2011 6.91831 95.4327 6.84436 95.5228 6.69322C95.6322 6.51315 95.8574 6.51636 95.9411 6.32021C95.9765 6.2366 96.1566 6.17551 96.2628 6.15622C96.4076 6.13049 96.3947 5.87323 96.5845 5.96649C96.7711 5.80892 97.0864 5.80571 97.1443 5.48736C97.2698 5.47128 97.3985 5.50987 97.5143 5.40697C97.7234 5.22368 97.9936 5.13364 98.2188 4.97608C98.2896 4.92784 98.309 4.83137 98.4409 4.83137C98.6403 4.83137 98.8108 4.68988 99.0167 4.66416C99.065 4.65773 99.1036 4.49051 99.1905 4.42941C99.2226 4.4069 99.2291 4.39083 99.1615 4.34902C98.8269 4.40047 98.4698 4.46158 98.2028 4.75741C98.087 4.77349 97.9389 4.70597 97.8585 4.79922C97.6751 5.01145 97.3792 5.03395 97.1861 5.22368C97.0832 5.32336 96.9641 5.38125 96.8194 5.41019C96.7003 5.4327 96.5877 5.50022 96.4848 5.56775C96.2756 5.69959 96.0794 5.85072 96.0504 6.11762C95.9475 6.15942 95.8349 6.07904 95.7448 6.17551C95.6547 6.27198 95.5646 6.37488 95.4553 6.44562C95.3523 6.51315 95.1625 6.52601 95.1432 6.63534C95.111 6.83793 94.9308 6.73181 94.8504 6.82506C94.7893 6.89581 94.8021 6.92796 94.8697 6.97298C94.6767 7.19164 94.3871 7.29454 94.223 7.53572C94.1169 7.67077 93.9592 7.68042 93.8724 7.80583C93.837 7.85728 93.7951 7.91516 93.7115 7.9023C93.6118 7.88622 93.5828 7.92481 93.57 8.03093C93.5571 8.13061 93.5378 8.25924 93.4155 8.30426C93.1903 8.38786 93.2482 8.54221 93.2868 8.76409C93.3255 8.65476 93.3287 8.5808 93.3608 8.56794C93.5603 8.47469 93.6729 8.29139 93.8273 8.1499C93.9045 8.07594 93.9464 7.93767 94.1104 7.96661C94.1458 7.97304 94.2423 7.88622 94.223 7.78011C94.2102 7.71579 94.2198 7.64505 94.2102 7.5743ZM89.024 11.3559C88.8825 11.2948 88.8889 11.1244 88.7763 11.0279C88.6991 10.9636 88.683 10.8285 88.6283 10.7321C88.2615 10.06 87.7339 9.51011 87.2352 8.94095C86.9521 8.61617 86.6079 8.34284 86.3634 7.98269C86.2926 7.87979 86.1961 7.87014 86.077 7.93124C86.0867 8.11132 86.1961 8.23994 86.3247 8.33962C86.4213 8.41358 86.6336 8.35892 86.566 8.59044C86.7752 8.64511 86.8234 8.87342 86.965 8.9731C87.2288 9.15318 87.4186 9.38149 87.6116 9.6291C87.9559 10.0696 88.2808 10.5198 88.5865 10.9893C88.7184 11.1951 88.7859 11.4652 89.024 11.5971C89.1302 11.5167 89.1817 11.4234 89.1044 11.2851C89.0819 11.3109 89.053 11.3334 89.024 11.3559ZM107.507 3.06277C107.266 3.09814 107.018 3.01454 106.767 2.99846C106.275 2.96631 105.779 2.98882 105.284 2.98882C105.158 2.98882 105.162 3.05313 105.22 3.15925C105.335 3.10779 105.474 3.20748 105.586 3.10457C105.725 2.97917 105.802 3.17854 105.94 3.16246C106.207 3.13031 106.484 3.10779 106.748 3.22677C106.815 3.25571 106.938 3.26536 106.979 3.22677C107.169 3.05313 107.279 3.19462 107.407 3.32003C107.443 3.23642 107.549 3.21069 107.507 3.06277ZM90.0793 9.17891C89.9409 9.33647 89.7607 9.42651 89.7768 9.64517C89.587 9.68697 89.6932 9.91529 89.5388 10.0021C89.4133 10.0729 89.4101 10.2561 89.365 10.388C89.2942 10.5938 89.1784 10.8028 89.246 11.0536C89.2749 11.0182 89.3007 11.0054 89.3039 10.9861C89.4294 10.4845 89.7543 10.0793 89.9763 9.62267C90.0439 9.48118 90.1501 9.37506 90.0793 9.17891ZM91.6847 10.5616C91.5367 10.5455 91.4401 10.6806 91.4208 10.7578C91.3887 10.8928 91.2696 10.9893 91.2568 11.089C91.2342 11.2369 91.1442 11.3141 91.083 11.4234C91.0573 11.4684 91.0509 11.552 91.112 11.6067C91.231 11.6292 91.3082 11.5456 91.3115 11.4652C91.3179 11.2466 91.4852 11.1244 91.5978 10.9829C91.704 10.8414 91.7651 10.7256 91.6847 10.5616ZM99.7535 4.34902C99.7953 4.12714 99.9722 4.04998 100.188 4.0339C100.265 4.02747 100.271 3.97923 100.262 3.92457C100.255 3.88276 100.217 3.86025 100.172 3.8699C99.9401 3.92778 99.7052 3.97602 99.4832 4.05319C99.406 4.07892 99.3417 4.17539 99.3031 4.25578C99.2805 4.3008 99.2709 4.38761 99.3417 4.43263C99.4671 4.45514 99.4929 4.30722 99.5926 4.2815C99.628 4.32652 99.6602 4.36832 99.7535 4.34902ZM98.2671 4.08856C98.6339 4.14322 98.8623 3.94064 99.1165 3.84418C99.1744 3.82167 99.258 3.75735 99.2033 3.65766C98.9299 3.63515 98.9298 3.63194 98.5663 3.79272C98.4569 3.84096 98.3862 3.93421 98.2671 4.08856ZM77.3937 2.76051C78.0211 2.98882 78.5455 3.26858 79.2147 3.40364C78.9669 3.17854 78.6742 3.19462 78.5197 2.98882C78.1498 3.00811 77.8506 2.70263 77.3937 2.76051ZM86.0577 7.80262C85.9516 7.66435 85.8583 7.51642 85.6845 7.46819C85.6556 7.27847 85.4786 7.20773 85.3756 7.0791C85.2952 6.97942 85.2019 7.00192 85.1118 7.05337C85.0925 7.16592 85.1794 7.23988 85.2309 7.24631C85.3982 7.27204 85.4915 7.40388 85.5526 7.51321C85.6716 7.72545 85.8711 7.73831 86.0577 7.80262ZM99.3803 3.50975C99.4864 3.66731 99.6698 3.69304 99.7567 3.59336C99.8757 3.4583 100.04 3.48724 100.165 3.3972C100.233 3.34896 100.3 3.32645 100.32 3.23642C100.159 3.16567 100.04 3.34254 99.879 3.31038C99.6924 3.27822 99.5283 3.35218 99.3803 3.50975ZM95.378 5.6192C95.1786 5.72532 95.1142 5.91183 94.9437 5.96328C94.8472 5.99222 94.8568 6.03723 94.8761 6.10155C95.3459 6.14335 95.3458 6.14335 95.5099 5.77356C95.4681 5.72854 95.4263 5.67708 95.378 5.6192ZM105.689 2.48396C105.631 2.33283 105.599 2.19455 105.416 2.31031C105.342 2.35855 105.265 2.36498 105.2 2.31353C105.142 2.27173 105.091 2.21706 105.036 2.29102C104.972 2.37141 104.882 2.31353 104.821 2.3489C104.779 2.37462 104.708 2.40678 104.718 2.48074C105.036 2.48396 105.351 2.48396 105.689 2.48396ZM104.846 3.12387C104.866 3.05634 104.879 3.00489 104.779 2.98238C104.611 2.94701 104.447 3.1303 104.283 2.9856C104.155 3.13352 103.958 3.02097 103.807 3.09493C103.817 3.14316 103.791 3.1914 103.836 3.21391C103.897 3.23963 103.987 3.25572 104.02 3.2107C104.106 3.09172 104.142 3.23642 104.203 3.22999C104.27 3.22356 104.367 3.25571 104.396 3.22355C104.531 3.07885 104.708 3.20104 104.846 3.12387ZM106.87 2.40357C106.896 2.55792 106.999 2.48074 107.063 2.50325C107.15 2.53863 107.176 2.65438 107.279 2.66082C107.327 2.66403 107.388 2.68976 107.433 2.63188C107.433 2.54505 107.433 2.45502 107.433 2.3682C107.234 2.3264 107.034 2.21063 106.87 2.40357ZM90.935 11.6035C90.9125 11.7353 90.8932 11.8543 90.787 11.9476C90.668 12.0505 90.6101 12.2949 90.6262 12.4878C90.6841 12.4428 90.7356 12.4042 90.7613 12.3206C90.7999 12.192 90.8675 12.073 90.935 11.9572C90.9672 11.9025 91.0927 11.9604 91.0862 11.8254C91.0766 11.716 91.0219 11.6646 90.935 11.6035ZM81.8785 4.74133C81.9718 5.03717 82.3161 4.98251 82.4641 5.1658C82.5413 5.13364 82.5445 5.0629 82.5284 5.05647C82.3547 4.96643 82.2388 4.80887 82.0909 4.68989C82.0522 4.66095 81.9429 4.63521 81.8785 4.74133ZM76.1197 2.44216C76.4961 2.60615 76.85 2.6576 77.2007 2.71227C76.8886 2.53541 76.5701 2.37463 76.1197 2.44216ZM106.809 2.48718C106.745 2.40036 106.671 2.44537 106.616 2.41964C106.561 2.39392 106.516 2.34248 106.468 2.29746C106.387 2.22028 106.288 2.24921 106.207 2.26851C106.13 2.2878 106.046 2.35212 106.075 2.48396C106.304 2.48718 106.532 2.48718 106.809 2.48718ZM97.5657 4.48087C97.2151 4.43263 97.0639 4.5291 96.9738 4.81529C97.1379 4.82172 97.1378 4.82172 97.5657 4.48087ZM101.462 3.68982C101.073 3.49688 100.999 3.51939 100.815 3.85703C101.076 3.94064 101.227 3.6448 101.462 3.68982ZM96.7421 4.77671C96.5009 4.88282 96.4236 5.08541 96.2338 5.13686C96.3721 5.13043 96.459 5.32014 96.6328 5.21403C96.607 5.09183 96.7035 4.99216 96.7421 4.77671ZM92.7592 9.16926C92.8364 9.18534 92.9072 9.20463 93.0102 9.16282C92.9812 9.03098 93.0488 8.92809 93.1549 8.83805C93.1968 8.80268 93.1807 8.73515 93.126 8.70943C93.097 8.69657 93.0294 8.69013 93.023 8.73837C93.0037 8.87343 92.9233 8.92809 92.7978 8.96668C92.727 8.98919 92.785 9.08887 92.7592 9.16926ZM90.2851 13.0344C90.5779 12.9991 90.4975 12.7547 90.6326 12.5585C90.2819 12.6132 90.3784 12.8833 90.2851 13.0344ZM85.5751 10.6227C85.839 10.6131 85.81 10.88 85.9644 10.9572C86.0095 10.8993 86.0963 10.8639 86.0802 10.7674C85.9869 10.6292 85.8036 10.6195 85.7199 10.478C85.6684 10.5263 85.6395 10.5552 85.5751 10.6227ZM68.9163 4.49695C68.9903 4.49373 69.0707 4.55804 69.1351 4.49051C69.2155 4.40691 69.3088 4.45193 69.3957 4.43585C69.4729 4.42299 69.5211 4.37475 69.5501 4.27828C69.2991 4.2622 69.0933 4.32331 68.9163 4.49695ZM93.3512 7.74152C93.4187 7.70293 93.4863 7.66435 93.4992 7.54215C93.438 7.51321 93.4187 7.40388 93.3641 7.41031C93.2643 7.51964 93.2 7.59038 93.1485 7.64826C93.2321 7.57431 93.245 7.76725 93.3512 7.74152ZM89.5709 9.14353C89.4294 9.16283 89.3779 8.97954 89.246 9.04064C89.1559 9.25287 89.3264 9.3204 89.4294 9.43295C89.4712 9.34612 89.5098 9.26894 89.5709 9.14353ZM94.1265 6.69C94.1877 6.80898 94.2585 6.87008 94.3775 6.85722C94.4225 6.85079 94.445 6.83471 94.4708 6.76397C94.3582 6.73502 94.4322 6.57424 94.3196 6.52922C94.2166 6.54208 94.1812 6.60961 94.1265 6.69ZM101.642 3.62551C101.838 3.65445 101.957 3.53226 102.115 3.49367C101.973 3.51297 101.883 3.38755 101.755 3.38755C101.719 3.38755 101.674 3.37148 101.648 3.41328C101.645 3.43579 101.636 3.46152 101.636 3.48403C101.636 3.52583 101.639 3.56441 101.642 3.62551ZM105.248 1.76687C105.606 1.77973 105.606 1.77974 105.712 1.6286C105.323 1.61574 105.322 1.61574 105.248 1.76687ZM95.8574 5.38446C95.7673 5.4552 95.6 5.42948 95.5872 5.64171C95.7448 5.63528 95.8992 5.70602 95.9797 5.5163C95.9443 5.47771 95.9089 5.43912 95.8574 5.38446ZM76.0811 2.38428C75.9202 2.17526 75.7175 2.27816 75.5245 2.29746C75.6789 2.35534 75.8398 2.38749 75.9652 2.50325C76.0038 2.46467 76.0425 2.42608 76.0811 2.38428ZM102.897 0.467762C103.164 0.532075 103.35 0.393801 103.556 0.355213C103.344 0.335919 103.128 0.287687 102.897 0.467762ZM82.1423 4.24291C82.2003 4.27185 82.2743 4.30722 82.345 4.3426C82.3772 4.27507 82.3804 4.1979 82.4576 4.12715C82.3193 4.20754 82.2903 3.96959 82.1423 4.05641C82.1423 4.11107 82.1423 4.17217 82.1423 4.24291ZM108.298 0.718581C108.34 0.647837 108.34 0.57709 108.289 0.483837C108.202 0.522424 108.096 0.438822 108.006 0.52886C108.073 0.651054 108.076 0.651053 108.298 0.718581ZM79.1986 2.74443C79.1085 2.52898 78.9605 2.44859 78.7385 2.53541C78.7707 2.56757 78.7868 2.58686 78.8093 2.60616C78.9155 2.69941 79.0795 2.64474 79.1986 2.74443ZM104.013 2.43573C104.235 2.59972 104.235 2.59972 104.634 2.43573C104.425 2.43573 104.248 2.43573 104.013 2.43573ZM85.4915 10.3912C85.5205 10.3044 85.4368 10.2819 85.4014 10.2497C85.3242 10.1854 85.3757 10.0986 85.3467 10.031C85.3403 10.015 85.3049 10.0021 85.2824 9.99889C85.2373 9.98603 85.2051 10.015 85.1955 10.0568C85.1665 10.2111 85.2341 10.2851 85.4915 10.3912ZM94.4483 6.40704C94.5287 6.44562 94.6059 6.48099 94.7314 6.54209C94.6735 6.40703 94.7539 6.30091 94.6638 6.20766C94.5384 6.20444 94.4933 6.28806 94.4483 6.40704ZM86.3086 7.20451C86.344 7.30741 86.2894 7.41031 86.3634 7.50678C86.4438 7.35243 86.4438 7.35243 86.64 7.30098C86.566 7.19808 86.4792 7.13698 86.3086 7.20451ZM70.7501 4.12072C70.8659 4.20111 70.9335 4.26221 70.9464 4.25578C71.1137 4.13037 71.3196 4.24934 71.548 4.14001C71.2777 4.10142 71.0654 4.11428 70.7501 4.12072ZM74.5529 2.1624C74.4146 2.13989 74.3084 2.03056 74.1733 2.02091C74.051 2.01448 74.051 2.08201 74.0928 2.1624C74.2472 2.1624 74.3985 2.1624 74.5529 2.1624ZM93.7404 7.07588C93.8498 7.10804 93.9464 7.11126 94.0686 7.06945C93.9464 7.03087 94.03 6.86687 93.8627 6.84758C93.8434 6.9151 93.7211 6.91832 93.7404 7.07588ZM80.5369 6.31056C80.6367 6.42311 80.6946 6.61605 80.9166 6.5035C80.8297 6.35558 80.6817 6.33629 80.5369 6.31056ZM89.6835 9.05349C89.6964 8.97632 89.7028 8.9506 89.7028 8.92809C89.7125 8.80911 89.6546 8.73837 89.542 8.70943C89.5227 8.703 89.4873 8.71907 89.4776 8.73515C89.4133 8.85091 89.5355 8.88307 89.5806 8.9506C89.6063 8.97954 89.6353 9.00204 89.6835 9.05349ZM88.4449 14.2692C88.5575 14.3786 88.432 14.6165 88.6315 14.6551C88.6347 14.5683 88.5897 14.3207 88.5479 14.2821C88.5286 14.2628 88.4803 14.2725 88.4449 14.2692ZM89.8798 14.0827C90.0792 13.9831 90.031 13.7869 90.1339 13.5779C89.9087 13.7387 89.9441 13.9316 89.8798 14.0827ZM87.2481 8.38465C87.3092 8.32998 87.2738 8.2721 87.2899 8.22708C87.3092 8.1692 87.3478 8.12097 87.3671 8.06308C87.3832 8.01806 87.351 7.99234 87.3124 7.98269C87.2899 7.97626 87.2449 7.98269 87.2417 7.99234C87.2063 8.08881 87.1741 8.18849 87.1548 8.28817C87.1516 8.31068 87.2063 8.34284 87.2481 8.38465ZM82.9692 5.41341C82.9885 5.38125 83.011 5.36195 83.0142 5.33944C83.0174 5.31693 83.0142 5.27513 83.0014 5.27192C82.8791 5.23011 82.7568 5.19796 82.567 5.14008C82.7086 5.32015 82.8372 5.36839 82.9692 5.41341ZM88.0299 8.82197C87.9044 8.78981 87.8336 8.73194 87.8079 8.62904C87.7693 8.66763 87.7307 8.70621 87.6953 8.74158C87.721 8.77052 87.7628 8.79625 87.7693 8.82841C87.7822 8.87664 87.7629 8.93773 87.8175 8.94095C87.9237 8.96024 87.943 8.87985 88.0299 8.82197ZM83.9729 8.83483C84.0019 8.7255 83.9279 8.69977 83.8893 8.65154C83.8475 8.60652 83.796 8.60331 83.7606 8.65154C83.7445 8.67405 83.7413 8.73515 83.7574 8.75122C83.7992 8.79303 83.8249 8.86378 83.9022 8.86699C83.9504 8.87021 83.9697 8.8477 83.9729 8.83483ZM84.6454 9.50368C84.6035 9.33325 84.5488 9.24 84.3719 9.29467C84.404 9.43294 84.4523 9.52297 84.6454 9.50368ZM103.27 3.18497C103.103 3.09814 103.058 3.21391 103.009 3.31038C103.003 3.32324 103.025 3.35218 103.038 3.38433C103.157 3.40363 103.212 3.32967 103.27 3.18497ZM108.002 3.27179C108.08 3.33289 108.16 3.32967 108.241 3.275C108.257 3.16567 108.186 3.12065 108.105 3.07564C108.07 3.13995 107.977 3.16889 108.002 3.27179ZM84.1306 6.0501C84.0019 6.03723 83.9569 6.10476 83.9118 6.17872C83.9729 6.23017 84.0116 6.31377 84.1081 6.28805C84.1756 6.22374 84.1402 6.14978 84.1306 6.0501ZM89.735 14.5972C89.8444 14.4976 89.9409 14.4075 89.8283 14.266C89.735 14.3432 89.661 14.4268 89.735 14.5972ZM90.2465 13.2242C90.1082 13.2917 90.076 13.3914 90.1307 13.5329C90.2691 13.4653 90.3012 13.3657 90.2465 13.2242ZM85.1054 9.99246C85.07 9.90564 85.0507 9.83811 85.0121 9.78345C84.9993 9.76094 84.9381 9.74807 84.9124 9.76094C84.8899 9.7738 84.8641 9.83168 84.8738 9.85419C84.9124 9.93137 84.9638 10.0053 85.1054 9.99246ZM91.9099 10.4008C92.0707 10.3944 92.0418 10.314 92.045 10.2561C92.0482 10.2015 92.0386 10.1532 91.9646 10.1565C91.8552 10.1597 91.8906 10.2401 91.8841 10.2979C91.8777 10.3526 91.8873 10.4041 91.9099 10.4008ZM89.6803 14.9574C89.4615 15.0635 89.4294 15.1632 89.4969 15.3272C89.5516 15.2179 89.5967 15.131 89.6803 14.9574ZM86.9907 12.0955C86.9585 12.1887 86.9167 12.2756 87.0261 12.3302C87.0486 12.3399 87.1162 12.3109 87.1194 12.2916C87.1419 12.1887 87.0679 12.1437 86.9907 12.0955ZM90.3495 11.8897C90.3495 11.7836 90.3463 11.7353 90.3495 11.6871C90.3527 11.6099 90.3012 11.6035 90.2498 11.6099C90.179 11.6196 90.1726 11.6839 90.1919 11.7257C90.2176 11.7739 90.2691 11.8093 90.3495 11.8897ZM102.437 3.3361C102.347 3.30394 102.26 3.26214 102.205 3.36826C102.195 3.39077 102.221 3.45829 102.24 3.46472C102.34 3.48723 102.388 3.41328 102.437 3.3361ZM89.1817 9.43295C89.1205 9.49083 89.1463 9.54549 89.1398 9.59694C89.1302 9.67411 89.1881 9.68055 89.2395 9.67412C89.3103 9.66447 89.3168 9.60015 89.2975 9.55835C89.2749 9.5069 89.2235 9.47153 89.1817 9.43295ZM103.736 3.18176C103.624 3.13031 103.518 3.13673 103.402 3.19461C103.495 3.19783 103.55 3.26214 103.617 3.29751C103.656 3.26214 103.695 3.22356 103.736 3.18176ZM90.4428 11.2851C90.3881 11.2851 90.3431 11.3012 90.3527 11.3688C90.3592 11.417 90.3238 11.5038 90.3785 11.507C90.446 11.5102 90.5039 11.4427 90.5104 11.3623C90.5168 11.3141 90.4878 11.2916 90.4428 11.2851ZM75.3733 1.66076C75.473 1.67684 75.5792 1.75402 75.6789 1.63504C75.5663 1.60931 75.4698 1.60288 75.3733 1.66076ZM96.7421 4.17539C96.7936 4.11429 96.903 4.1368 96.9706 4.04354C96.8547 4.05641 96.7132 3.95351 96.7421 4.17539ZM83.0753 4.80565C83.1365 4.8378 83.1911 4.86675 83.1751 4.86032C83.2265 4.84424 83.2877 4.82816 83.3649 4.80565C83.2523 4.74777 83.1815 4.74455 83.0753 4.80565ZM83.0174 7.96661C83.0046 7.92481 82.9885 7.89909 82.937 7.9023C82.863 7.9023 82.8501 7.94732 82.8566 8.00199C82.8598 8.04379 82.8855 8.0663 82.9338 8.0663C83.0078 8.06309 83.0142 8.01806 83.0174 7.96661ZM96.9609 6.1337C96.9641 6.05653 96.9159 6.04366 96.8612 6.0501C96.8194 6.05331 96.7968 6.07903 96.7968 6.12727C96.7968 6.20123 96.8419 6.21409 96.8966 6.20766C96.9384 6.20444 96.9706 6.17872 96.9609 6.1337ZM90.9962 7.09839C90.9994 7.02122 90.9511 7.00835 90.8964 7.01478C90.8546 7.018 90.8321 7.04372 90.8321 7.09196C90.8321 7.16592 90.8771 7.17878 90.9318 7.17235C90.9736 7.16913 91.0058 7.14663 90.9962 7.09839ZM92.3281 8.85413C92.3603 8.75444 92.3957 8.65154 92.3152 8.52292C92.2702 8.65797 92.2734 8.75444 92.3281 8.85413ZM92.608 9.51655C92.6112 9.43937 92.563 9.42651 92.5083 9.43295C92.4664 9.43616 92.4439 9.46188 92.4439 9.51012C92.4439 9.58408 92.489 9.59694 92.5436 9.59051C92.5855 9.58729 92.6177 9.56478 92.608 9.51655ZM70.4831 4.24613C70.586 4.27186 70.5861 4.27185 70.5732 4.04997C70.5249 4.15609 70.4992 4.21397 70.4831 4.24613ZM84.166 9.17891C84.2368 9.1564 84.2754 9.11138 84.3075 9.04707C84.137 9.00526 84.1242 9.06636 84.166 9.17891ZM109.627 0.770032C109.524 0.712151 109.453 0.718582 109.363 0.770032C109.457 0.824698 109.531 0.824698 109.627 0.770032ZM84.3429 6.32021C84.24 6.29448 84.24 6.29449 84.2528 6.51637C84.3043 6.40703 84.3301 6.35236 84.3429 6.32021ZM72.3652 1.9791C72.4681 2.0402 72.5389 2.03056 72.629 1.98232C72.5357 1.92444 72.4649 1.92765 72.3652 1.9791ZM103.17 2.62545C103.087 2.56114 103.006 2.56114 102.922 2.62545C103.006 2.68655 103.087 2.68655 103.17 2.62545ZM83.4775 8.37178C83.4485 8.31712 83.4196 8.26245 83.3778 8.18528C83.3166 8.34928 83.3327 8.41037 83.4775 8.37178ZM75.3411 2.2042C75.2703 2.2042 75.1899 2.15275 75.1095 2.22671C75.2028 2.27495 75.2768 2.27816 75.3411 2.2042ZM82.1166 7.31705C82.0941 7.24631 82.049 7.20772 81.9847 7.17557C81.9429 7.34278 82.004 7.35886 82.1166 7.31705ZM69.164 2.30067C69.0611 2.24279 68.9903 2.24922 68.9002 2.30067C68.9967 2.35533 69.0675 2.35533 69.164 2.30067ZM90.0696 12.2531C90.1275 12.1984 90.1275 12.1437 90.0696 12.0891C90.0117 12.1437 90.0117 12.1984 90.0696 12.2531ZM108.327 2.62545C108.273 2.56757 108.218 2.56757 108.163 2.62545C108.218 2.68333 108.273 2.68333 108.327 2.62545ZM75.0387 4.35546C75.0001 4.35224 74.9647 4.36189 74.9711 4.40691C74.9743 4.41977 75.013 4.42942 75.0355 4.43263C75.0741 4.43906 75.1095 4.42942 75.103 4.38118C75.0998 4.37153 75.0612 4.36511 75.0387 4.35546ZM78.5036 2.50325C78.5262 2.49361 78.5648 2.48718 78.568 2.47431C78.5777 2.42608 78.539 2.41643 78.5004 2.42286C78.4779 2.42608 78.4393 2.43895 78.4361 2.44859C78.4297 2.49683 78.465 2.50647 78.5036 2.50325ZM97.7556 4.32652C97.7459 4.31044 97.7363 4.27828 97.7234 4.27828C97.688 4.27506 97.6398 4.25899 97.6204 4.30401C97.614 4.31366 97.6365 4.35224 97.6494 4.35224C97.6848 4.35546 97.7266 4.37476 97.7556 4.32652ZM92.6884 9.27216C92.6498 9.26895 92.6144 9.27859 92.6209 9.32361C92.6241 9.33647 92.6627 9.34612 92.6852 9.34934C92.7238 9.35577 92.7592 9.34612 92.7528 9.29789C92.7496 9.28502 92.711 9.2786 92.6884 9.27216ZM74.3116 4.35546C74.3341 4.34581 74.3727 4.33938 74.3759 4.32652C74.3856 4.27829 74.347 4.26864 74.3084 4.27507C74.2859 4.27829 74.2472 4.29114 74.244 4.30079C74.2376 4.35224 74.273 4.35868 74.3116 4.35546ZM94.5448 5.32336C94.5673 5.31371 94.6059 5.30728 94.6091 5.29442C94.6188 5.24619 94.5802 5.23654 94.5416 5.24297C94.5191 5.24618 94.4804 5.25905 94.4772 5.2687C94.4708 5.31693 94.5029 5.32657 94.5448 5.32336ZM85.4239 6.17872C85.4143 6.16264 85.4046 6.13049 85.3917 6.13049C85.3564 6.12727 85.3081 6.1112 85.2888 6.15622C85.2824 6.16586 85.3049 6.20445 85.3178 6.20445C85.3531 6.20766 85.395 6.22695 85.4239 6.17872ZM91.601 9.51012C91.5431 9.56478 91.5431 9.61945 91.601 9.67412C91.6589 9.61945 91.6589 9.56478 91.601 9.51012ZM85.1923 6.24946C85.1376 6.19158 85.0829 6.19158 85.0282 6.24946C85.0861 6.30734 85.1376 6.30734 85.1923 6.24946ZM91.157 10.3172C91.1796 10.3076 91.2181 10.3012 91.2214 10.2883C91.231 10.2401 91.1924 10.2304 91.1538 10.2369C91.1313 10.2401 91.0927 10.2529 91.0894 10.2626C91.083 10.314 91.1184 10.3205 91.157 10.3172ZM98.2382 3.68018C98.2285 3.6641 98.2188 3.63194 98.206 3.63194C98.1706 3.62873 98.1223 3.61265 98.103 3.65766C98.0966 3.66731 98.1191 3.7059 98.132 3.7059C98.1674 3.71233 98.2124 3.72841 98.2382 3.68018ZM106.069 1.77974C106.091 1.77009 106.13 1.76366 106.133 1.7508C106.143 1.70256 106.104 1.69291 106.066 1.69934C106.043 1.70256 106.005 1.71543 106.001 1.72508C105.995 1.77331 106.03 1.78295 106.069 1.77974ZM74.717 1.61895C74.7395 1.60931 74.7781 1.60288 74.7813 1.59001C74.791 1.54178 74.7524 1.53213 74.7138 1.53856C74.6912 1.54178 74.6526 1.55465 74.6494 1.56429C74.6397 1.61253 74.6752 1.62217 74.717 1.61895ZM91.2246 12.5232C91.1988 12.4749 91.1538 12.4942 91.1184 12.4942C91.1088 12.4942 91.0862 12.5328 91.0894 12.5425C91.1088 12.5875 91.157 12.5714 91.1924 12.5682C91.2053 12.5714 91.2149 12.5392 91.2246 12.5232ZM108.405 0.368078C108.459 0.42596 108.514 0.42596 108.569 0.368078C108.514 0.310197 108.459 0.310197 108.405 0.368078ZM81.5664 7.01478C81.589 7.00514 81.6276 6.99871 81.6308 6.98585C81.6405 6.93761 81.6018 6.92796 81.5632 6.93439C81.5407 6.93761 81.5021 6.95048 81.4989 6.96012C81.4925 7.00836 81.5278 7.018 81.5664 7.01478ZM85.9194 7.01478C85.9419 7.00514 85.9805 6.99871 85.9837 6.98585C85.9934 6.93761 85.9548 6.92796 85.9162 6.93439C85.8936 6.93761 85.855 6.95048 85.8518 6.96012C85.8454 7.00836 85.8808 7.018 85.9194 7.01478ZM78.8929 5.4552C78.8833 5.43912 78.8736 5.40697 78.8607 5.40697C78.8254 5.40375 78.7771 5.38768 78.7578 5.4327C78.7514 5.44235 78.7739 5.48093 78.7868 5.48093C78.8221 5.48415 78.8672 5.50022 78.8929 5.4552ZM107.922 3.18818C107.867 3.1303 107.813 3.1303 107.758 3.18818C107.816 3.24607 107.867 3.24607 107.922 3.18818ZM86.6432 7.66113C86.6046 7.65791 86.5693 7.66756 86.5757 7.71258C86.5789 7.72544 86.6175 7.73509 86.64 7.7383C86.6786 7.74473 86.714 7.73509 86.7076 7.68685C86.7044 7.67399 86.6658 7.66756 86.6432 7.66113ZM82.7054 4.5709C82.715 4.58055 82.7247 4.59019 82.7343 4.59984C82.744 4.58055 82.7568 4.56448 82.7601 4.54518C82.7601 4.53875 82.744 4.5291 82.7343 4.51945C82.7247 4.53553 82.715 4.55161 82.7054 4.5709ZM84.6807 5.65779C84.6647 5.66743 84.6453 5.67708 84.6293 5.68673C84.6389 5.69637 84.6485 5.71246 84.655 5.71246C84.6743 5.70924 84.6904 5.69637 84.7097 5.68673C84.7 5.67708 84.6904 5.66743 84.6807 5.65779ZM93.8852 6.15622C93.8756 6.14657 93.866 6.13691 93.8563 6.12727C93.8466 6.14656 93.8338 6.16264 93.8305 6.18194C93.8305 6.18837 93.8466 6.19801 93.8563 6.20766C93.866 6.19158 93.8756 6.17551 93.8852 6.15622ZM97.1732 3.88598C97.1572 3.89563 97.1378 3.90527 97.1218 3.91492C97.1314 3.92457 97.1411 3.94064 97.1475 3.94064C97.1668 3.93743 97.1829 3.92457 97.2022 3.91492C97.1925 3.90527 97.1829 3.89563 97.1732 3.88598ZM81.7563 3.69947C81.7723 3.68982 81.7917 3.68018 81.8077 3.67053C81.7981 3.66088 81.7885 3.64481 81.782 3.64481C81.7627 3.64802 81.7466 3.66088 81.7273 3.67053C81.7337 3.68018 81.7434 3.68982 81.7563 3.69947ZM81.071 6.64177C81.0614 6.63212 81.0517 6.62248 81.042 6.61283C81.0324 6.63212 81.0195 6.64821 81.0163 6.6675C81.0163 6.67393 81.0324 6.68357 81.042 6.69322C81.0517 6.67393 81.0614 6.65785 81.071 6.64177ZM93.2643 6.66428C93.274 6.67393 93.2836 6.68357 93.2933 6.69322C93.3029 6.67393 93.3158 6.65786 93.319 6.63856C93.319 6.63213 93.3029 6.62248 93.2933 6.61283C93.2836 6.62891 93.274 6.6482 93.2643 6.66428ZM96.0633 6.74467C96.0537 6.72859 96.044 6.7093 96.0343 6.69322C96.0247 6.70287 96.0086 6.71252 96.0086 6.71895C96.0118 6.73825 96.0247 6.75432 96.0343 6.77361C96.0408 6.76397 96.0504 6.75432 96.0633 6.74467ZM91.7908 9.37828C91.7812 9.36863 91.7715 9.35898 91.7619 9.34934C91.7522 9.36863 91.7393 9.3847 91.7361 9.404C91.7361 9.41043 91.7522 9.42008 91.7619 9.42973C91.7715 9.41365 91.7812 9.39757 91.7908 9.37828ZM76.9722 4.71883C76.9626 4.70918 76.9529 4.6931 76.9465 4.6931C76.9272 4.69631 76.9111 4.70918 76.8918 4.71883C76.9014 4.72848 76.9111 4.74455 76.9176 4.74455C76.9369 4.74133 76.9529 4.72848 76.9722 4.71883ZM72.9411 1.9791C72.9314 1.96946 72.9217 1.95338 72.9153 1.95338C72.896 1.9566 72.8799 1.96946 72.8606 1.9791C72.8703 1.98875 72.8799 2.00483 72.8864 2.00483C72.9057 2.00162 72.9218 1.98875 72.9411 1.9791ZM109.36 3.44222C109.35 3.42614 109.341 3.40685 109.331 3.39077C109.322 3.40042 109.305 3.41006 109.305 3.41649C109.309 3.43579 109.322 3.45187 109.331 3.47116C109.341 3.46151 109.35 3.45187 109.36 3.44222ZM88.5093 9.78345C88.5189 9.79953 88.5286 9.81882 88.5382 9.8349C88.5479 9.82525 88.5639 9.8156 88.5639 9.80917C88.5607 9.78988 88.5479 9.7738 88.5382 9.75451C88.5286 9.76416 88.5189 9.77059 88.5093 9.78345ZM104.283 1.7508C104.274 1.73472 104.264 1.71542 104.254 1.69934C104.245 1.70899 104.229 1.71864 104.229 1.72508C104.232 1.74437 104.245 1.76044 104.254 1.77974C104.264 1.77009 104.274 1.76044 104.283 1.7508ZM103.357 1.78938C103.347 1.79903 103.337 1.80867 103.328 1.81832C103.347 1.82797 103.363 1.84084 103.383 1.84405C103.389 1.84405 103.399 1.82797 103.408 1.81832C103.392 1.80867 103.373 1.79903 103.357 1.78938ZM95.3877 4.9214C95.3781 4.93105 95.3619 4.9407 95.3619 4.94714C95.3652 4.96643 95.3781 4.9825 95.3877 5.0018C95.3974 4.99215 95.4134 4.98251 95.4134 4.97608C95.4102 4.95678 95.3974 4.93748 95.3877 4.9214ZM104.576 1.69934C104.566 1.70899 104.55 1.71864 104.55 1.72508C104.554 1.74437 104.566 1.76044 104.576 1.77974C104.586 1.77009 104.602 1.76045 104.602 1.75402C104.599 1.73151 104.586 1.71542 104.576 1.69934ZM90.6197 11.1919C90.6358 11.1822 90.6551 11.1726 90.6712 11.1629C90.6616 11.1533 90.6519 11.1372 90.6455 11.1372C90.6262 11.1404 90.6101 11.1533 90.5908 11.1629C90.6005 11.1726 90.6101 11.1822 90.6197 11.1919ZM91.9517 11.1533C91.942 11.1437 91.9324 11.134 91.9227 11.1244C91.9131 11.1437 91.9002 11.1597 91.897 11.179C91.897 11.1855 91.9131 11.1951 91.9227 11.2048C91.9324 11.1855 91.942 11.1694 91.9517 11.1533ZM79.3884 2.78623C79.3787 2.77658 79.3691 2.76051 79.3626 2.76051C79.3433 2.76373 79.3272 2.77658 79.3079 2.78623C79.3176 2.79588 79.3273 2.81195 79.3337 2.81195C79.353 2.80552 79.3723 2.79588 79.3884 2.78623ZM87.2191 12.4428C87.2288 12.4589 87.2384 12.4781 87.2481 12.4942C87.2577 12.4846 87.2738 12.4749 87.2738 12.4685C87.2706 12.4492 87.2577 12.4331 87.2481 12.4138C87.2384 12.4203 87.2288 12.4299 87.2191 12.4428ZM93.644 7.22702C93.6343 7.21094 93.6247 7.19164 93.615 7.17557C93.6054 7.18521 93.5892 7.19487 93.5892 7.2013C93.5925 7.22059 93.6054 7.23666 93.615 7.25596C93.6247 7.24631 93.6343 7.23988 93.644 7.22702ZM87.3575 12.6839C87.3478 12.6743 87.3382 12.6647 87.3285 12.655C87.3189 12.6743 87.306 12.6904 87.3028 12.7097C87.3028 12.7161 87.3189 12.7257 87.3285 12.7354C87.3382 12.7161 87.3478 12.7 87.3575 12.6839ZM91.0251 12.7225C91.0412 12.7129 91.0605 12.7032 91.0766 12.6936C91.067 12.6839 91.0573 12.6679 91.0508 12.6679C91.0315 12.6711 91.0155 12.6839 90.9962 12.6936C91.0058 12.7032 91.0123 12.7129 91.0251 12.7225ZM109.022 0.660692C109.006 0.670339 108.987 0.679995 108.971 0.689642C108.981 0.699289 108.99 0.715362 108.997 0.715362C109.016 0.712147 109.032 0.699289 109.051 0.689642C109.042 0.68321 109.032 0.673555 109.022 0.660692ZM108.636 0.599604C108.627 0.589957 108.617 0.580302 108.607 0.570655C108.598 0.589949 108.585 0.606031 108.582 0.625325C108.582 0.631756 108.598 0.641399 108.607 0.651046C108.617 0.631752 108.627 0.615683 108.636 0.599604ZM109.505 0.5578C109.515 0.548153 109.524 0.538507 109.534 0.52886C109.515 0.519213 109.498 0.506345 109.479 0.50313C109.473 0.50313 109.463 0.519213 109.453 0.52886C109.47 0.538507 109.489 0.548153 109.505 0.5578ZM79.723 2.95666C79.7326 2.96631 79.7423 2.97595 79.7519 2.9856C79.7616 2.9663 79.7745 2.95023 79.7777 2.93094C79.7777 2.92451 79.7616 2.91485 79.7519 2.90521C79.7423 2.9245 79.7326 2.94058 79.723 2.95666ZM108.192 0.258738C108.183 0.268385 108.173 0.278041 108.163 0.287688C108.183 0.297335 108.199 0.310193 108.218 0.313408C108.224 0.313408 108.234 0.297335 108.244 0.287688C108.228 0.278041 108.208 0.268385 108.192 0.258738ZM89.0497 15.2597C89.0401 15.25 89.0304 15.2404 89.0208 15.2307C89.0111 15.25 88.9982 15.2661 88.995 15.2854C88.995 15.2918 89.0111 15.3015 89.0208 15.3111C89.0304 15.295 89.0401 15.279 89.0497 15.2597Z" fill="#E31C3D"></path><path d="M105.068 0.0850011C105.223 0.0850011 105.335 0.0624883 105.432 0.0914287C105.528 0.120369 105.59 -0.0275434 105.66 0.0464154C105.783 0.171824 105.834 -0.0179013 105.934 0.00139228C106.088 0.0335483 106.278 -0.0693545 106.397 0.1686C106.03 0.120366 105.702 0.294012 105.342 0.252209C105.239 0.242562 105.171 0.207194 105.068 0.0850011Z" fill="#E8EE2D"></path><path d="M98.1738 1.5738C98.3572 1.38086 98.5888 1.3905 98.7819 1.26831C98.8398 1.4516 98.8494 1.59308 98.6886 1.6992C98.5663 1.71528 98.5341 1.58344 98.4505 1.54164C98.3669 1.60595 98.4602 1.70563 98.3894 1.76351C98.1899 1.83747 98.2736 1.60274 98.1738 1.5738Z" fill="#E8EE2D"></path><path d="M91.7198 6.1303C91.6715 6.33609 91.4591 6.26534 91.3369 6.34895C91.3304 6.35216 91.2854 6.2975 91.25 6.26213C91.3272 6.111 91.3626 5.902 91.6329 5.9856C91.6104 6.02741 91.591 6.06599 91.575 6.10136C91.6168 6.15281 91.6715 6.11743 91.7198 6.1303Z" fill="#E8EE2D"></path><path d="M91.9066 5.98564C91.8776 5.84415 91.7329 5.93097 91.7168 5.78627C91.8133 5.6898 91.8744 5.51294 92.0996 5.57726C92.1993 5.77662 92.0224 5.85059 91.9066 5.98564Z" fill="#E8EE2D"></path><path d="M97.6335 2.14629C97.6046 2.01124 97.6979 1.99516 97.6882 1.9212C97.6625 1.72505 97.6689 1.72504 97.9006 1.70575C97.9939 1.94692 97.8105 2.01445 97.6335 2.14629Z" fill="#E8EE2D"></path><path d="M100.992 0.673549C100.809 0.689626 101.028 1.0144 100.78 0.966168C100.719 0.888994 100.848 0.898645 100.761 0.770022C100.703 0.702495 100.655 0.956524 100.545 0.888997C100.491 0.840763 100.481 0.773232 100.548 0.734645C100.684 0.654256 100.835 0.625315 100.992 0.673549Z" fill="#E8EE2D"></path><path d="M106.78 0.306798C106.674 0.377539 106.642 0.255346 106.574 0.25213C106.484 0.248915 106.446 0.197468 106.478 0.133158C106.52 0.0527708 106.629 0.065634 106.681 0.10422C106.732 0.146022 106.748 0.239273 106.78 0.306798Z" fill="#E8EE2D"></path><path d="M96.8 2.17837C96.755 2.27162 96.726 2.33272 96.6906 2.40989C96.607 2.43562 96.5105 2.43562 96.4043 2.38739C96.5684 2.39061 96.5941 2.17515 96.8 2.17837Z" fill="#E8EE2D"></path><path d="M106.963 0.265047C106.963 0.184655 106.963 0.149279 106.963 0.101044C107.095 0.101044 107.221 0.101044 107.433 0.101044C107.234 0.168573 107.115 0.21038 106.963 0.265047Z" fill="#E8EE2D"></path><path d="M91.1312 6.68993C90.9253 6.57738 91.1087 6.48413 91.0926 6.38123C91.173 6.40695 91.2245 6.45519 91.2342 6.53236C91.2503 6.61597 91.1473 6.6224 91.1312 6.68993Z" fill="#E8EE2D"></path><path d="M94.5386 3.44858C94.7059 3.48717 94.796 3.53541 94.7799 3.71228C94.6287 3.70585 94.5482 3.65117 94.5386 3.44858Z" fill="#E8EE2D"></path><path d="M92.8432 5.02731C92.7949 5.10449 92.7499 5.17845 92.647 5.15594C92.6277 5.15272 92.5987 5.08198 92.6084 5.06268C92.6663 4.95335 92.7531 4.99516 92.8432 5.02731Z" fill="#E8EE2D"></path><path d="M92.5117 5.43902C92.4152 5.4969 92.3187 5.49046 92.2061 5.46474C92.3058 5.34898 92.412 5.42294 92.5117 5.43902Z" fill="#E8EE2D"></path><path d="M100.429 0.85042C100.346 0.914734 100.265 0.914734 100.182 0.85042C100.265 0.789321 100.346 0.789321 100.429 0.85042Z" fill="#E8EE2D"></path><path d="M95.7832 2.75404C95.8282 2.73153 95.8829 2.73474 95.9087 2.78619C95.9215 2.81192 95.9312 2.86337 95.854 2.90517C95.8347 2.86337 95.8089 2.8087 95.7832 2.75404Z" fill="#E8EE2D"></path><path d="M91.8743 6.08229C91.8422 6.15947 91.7714 6.11766 91.7199 6.13053C91.7167 6.06299 91.7585 6.04691 91.8132 6.05013C91.8357 6.05334 91.855 6.06943 91.8743 6.08229Z" fill="#E8EE2D"></path><path d="M99.1357 1.17503C99.1904 1.11715 99.2451 1.11715 99.2998 1.17503C99.2451 1.23291 99.1904 1.23291 99.1357 1.17503Z" fill="#E8EE2D"></path><path d="M99.525 1.08837C99.5186 1.10124 99.5089 1.13339 99.496 1.13339C99.4607 1.1366 99.4124 1.15268 99.3931 1.10767C99.3867 1.09802 99.4124 1.05944 99.4221 1.05944C99.4574 1.05622 99.5025 1.0305 99.525 1.08837Z" fill="#E8EE2D"></path><path d="M92.457 5.1915C92.4667 5.18186 92.4764 5.1722 92.486 5.16255C92.4957 5.18185 92.5085 5.19793 92.5118 5.21723C92.5118 5.22366 92.4957 5.2333 92.486 5.24295C92.4764 5.22365 92.4667 5.20758 92.457 5.1915Z" fill="#E8EE2D"></path><path d="M96.0442 2.59647C96.0538 2.60612 96.0635 2.61576 96.0731 2.62541C96.0538 2.63506 96.0378 2.64793 96.0184 2.65114C96.012 2.65114 96.0023 2.63506 95.9927 2.62541C96.012 2.61576 96.0281 2.60612 96.0442 2.59647Z" fill="#E8EE2D"></path><path d="M96.166 2.55454C96.1757 2.53846 96.1853 2.51916 96.195 2.50308C96.2046 2.51273 96.2207 2.52238 96.2207 2.52881C96.2175 2.54811 96.2046 2.56418 96.195 2.58348C96.1853 2.57383 96.1757 2.5674 96.166 2.55454Z" fill="#E8EE2D"></path><path d="M98.9654 1.26521C98.9557 1.27485 98.946 1.2845 98.9364 1.29414C98.9267 1.27485 98.9139 1.25878 98.9106 1.23949C98.9106 1.23306 98.9267 1.22341 98.9364 1.21376C98.946 1.23305 98.9557 1.24913 98.9654 1.26521Z" fill="#E8EE2D"></path><path d="M99.7695 1.0239C99.7599 1.03355 99.7502 1.04319 99.7406 1.05284C99.7309 1.03354 99.7181 1.01747 99.7148 0.998175C99.7148 0.991743 99.7309 0.98209 99.7406 0.972443C99.7502 0.988522 99.7599 1.00782 99.7695 1.0239Z" fill="#E8EE2D"></path><path d="M100.091 0.943674C100.082 0.95332 100.072 0.962965 100.062 0.972611C100.053 0.953319 100.04 0.937247 100.037 0.917955C100.037 0.911525 100.053 0.901873 100.062 0.892227C100.072 0.908304 100.082 0.927597 100.091 0.943674Z" fill="#E8EE2D"></path><path d="M93.2513 4.55796C93.232 4.56761 93.2159 4.58046 93.1966 4.58368C93.1902 4.58368 93.1805 4.56761 93.1709 4.55796C93.1902 4.54831 93.2063 4.53544 93.2256 4.53223C93.232 4.53223 93.2449 4.54831 93.2513 4.55796Z" fill="#E8EE2D"></path><path d="M33.974 10.8124C37.6384 13.4589 39.9548 17.0443 40.92 21.5719L30.538 23.7071C30.1808 21.3147 29.0613 19.3949 27.1792 17.9447C25.2971 16.4944 23.0579 15.7709 20.4616 15.7709C17.9683 15.7709 15.9575 16.3819 14.4293 17.6006C12.9011 18.8225 12.1386 20.321 12.1386 22.1025C12.1386 24.9001 13.8437 26.6301 17.254 27.2925L28.2473 29.5049C32.4715 30.4213 35.766 32.1128 38.1338 34.5792C40.5017 37.0455 41.6825 40.2387 41.6825 44.1553C41.6825 49.0881 39.8261 53.0079 36.1102 55.9052C32.3943 58.8057 27.4848 60.256 21.3753 60.256C15.7258 60.256 10.9032 58.9472 6.90739 56.3265C2.91159 53.7057 0.608057 49.9563 0 45.0717L10.9161 42.8594C12.2383 48.4032 16.0572 51.175 22.3662 51.175C25.2681 51.175 27.5073 50.5641 29.0838 49.3453C30.6602 48.1234 31.4516 46.5735 31.4516 44.6923C31.4516 43.1649 31.0077 41.9719 30.1165 41.1069C29.2254 40.2419 27.6875 39.5794 25.4965 39.1228L14.6577 37.0616C5.70093 35.1805 1.22254 30.2959 1.22254 22.4112C1.22254 17.7807 2.97915 14.0312 6.48915 11.1565C10.0024 8.28169 14.7349 6.8443 20.69 6.8443C25.8826 6.8443 30.3096 8.16592 33.974 10.8124Z" fill="#005380"></path><path d="M83.0977 25.7297C87.0935 29.4695 89.0914 34.264 89.0914 40.1132C89.0914 45.9624 87.0935 50.757 83.0977 54.4967C79.1019 58.2365 74.2536 60.1048 68.5558 60.1048C62.7552 60.1048 57.8424 58.2365 53.8209 54.4967C49.7993 50.757 47.7886 45.9624 47.7886 40.1132C47.7886 34.264 49.7993 29.4695 53.8209 25.7297C57.8424 21.9899 62.7519 20.1216 68.5558 20.1216C74.2568 20.1216 79.1019 21.9899 83.0977 25.7297ZM76.0359 48.3131C78.2236 46.2036 79.3175 43.4671 79.3175 40.11C79.3175 36.7529 78.2236 34.0196 76.0359 31.9069C73.8482 29.7975 71.3548 28.7395 68.5558 28.7395C65.6539 28.7395 63.0962 29.7814 60.8827 31.8683C58.6693 33.9553 57.5625 36.7014 57.5625 40.11C57.5625 43.5186 58.6693 46.2647 60.8827 48.3517C63.0962 50.4386 65.6539 51.4805 68.5558 51.4805C71.3548 51.4805 73.8482 50.4257 76.0359 48.3131Z" fill="#005380"></path><path d="M123.136 20.8066L122.602 30.4985H120.389C111.329 30.4985 106.799 35.9426 106.799 46.8275V59.1112H96.7227V21.0349H106.799V27.9775C110.261 22.9932 114.816 20.5011 120.463 20.5011C121.637 20.5011 122.528 20.604 123.136 20.8066Z" fill="#005380"></path><path d="M156.496 23.6684C159.498 26.1863 161 29.7106 161 34.235V59.1112H151.381V55.9823C148.427 58.8314 144.56 60.2559 139.776 60.2559C135.401 60.2559 131.887 59.1112 129.24 56.8216C126.592 54.5321 125.27 51.5319 125.27 47.8178C125.27 44.1038 126.605 41.1422 129.278 38.9298C131.952 36.7175 135.652 35.6113 140.387 35.6113H151.381V35.0003C151.381 33.0677 150.782 31.5146 149.585 30.3473C148.389 29.1768 146.825 28.5915 144.891 28.5915C140.362 28.5915 137.714 30.447 136.951 34.161L127.332 32.2542C128.043 28.5401 129.967 25.5528 133.097 23.289C136.227 21.0252 139.956 19.8933 144.28 19.8933C149.425 19.8901 153.494 21.1506 156.496 23.6684ZM148.405 49.7633C150.39 48.1105 151.381 46.0878 151.381 43.6986V43.242H140.236C138.66 43.242 137.373 43.6375 136.382 44.4254C135.391 45.2132 134.892 46.2679 134.892 47.5927C134.892 49.0173 135.491 50.1492 136.688 50.9885C137.884 51.8277 139.448 52.249 141.381 52.249C144.081 52.2425 146.42 51.4161 148.405 49.7633Z" fill="#005380"></path></svg>